<svg xmlns="http://www.w3.org/2000/svg" data-name="Layer 1" viewBox="0 0 100 125" x="0px" y="0px"><title>Artboard 7</title><path d="M92.55,16.3h-5V13.74a10,10,0,0,0-10-10H20A10.26,10.26,0,0,0,9.77,14V17.7H4a2.5,2.5,0,0,0,0,5H9.77v9.9H4a2.5,2.5,0,0,0,0,5H9.77v9.9H4a2.5,2.5,0,0,0,0,5H9.77v9.9H4a2.5,2.5,0,0,0,0,5H9.77v9.9H4a2.5,2.5,0,0,0,0,5H9.77V86A10.26,10.26,0,0,0,20,96.21H77.55a10,10,0,0,0,10-10v-4.5h5a6,6,0,0,0,6-6V69.69a6,6,0,0,0-6-6h-5V58h5a6,6,0,0,0,6-6V46a6,6,0,0,0-6-6h-5V34.33h5a6,6,0,0,0,6-6V22.26A6,6,0,0,0,92.55,16.3Zm-10,70a5,5,0,0,1-5,5H20A5.26,5.26,0,0,1,14.77,86V14A5.26,5.26,0,0,1,20,8.79H77.55a5,5,0,0,1,5,5Zm10-17.53a1,1,0,0,1,1,1v6.12a1,1,0,0,1-1,1h-5v-8Zm0-23.71a1,1,0,0,1,1,1v6.12a1,1,0,0,1-1,1h-5V45Zm1-16.64a1,1,0,0,1-1,1h-5v-8h5a1,1,0,0,1,1,1Z"/><path d="M49.22,42.34a2.5,2.5,0,0,0,2.36-1.67L56,28.09a6.13,6.13,0,0,0-5.79-8.16H47A19,19,0,0,0,29.7,31.05a45.72,45.72,0,0,0,0,37.9h0A19,19,0,0,0,47,80.07h3.2A6.13,6.13,0,0,0,56,71.91l-4.4-12.57a2.52,2.52,0,0,0-2.41-1.67l-5.32.1,0,0a19.59,19.59,0,0,1,0-15.39ZM39.34,40a24.6,24.6,0,0,0-.1,19.66l.12.27a4.6,4.6,0,0,0,4.33,2.79l3.77-.07,3.8,10.86a1.13,1.13,0,0,1-1.07,1.51H47a14,14,0,0,1-12.73-8.19h0a40.72,40.72,0,0,1,0-33.75A14,14,0,0,1,47,24.93h3.2a1.13,1.13,0,0,1,1.07,1.51l-3.81,10.9h-4A4.55,4.55,0,0,0,39.34,40Z"/><path d="M60.75,40.91a2.5,2.5,0,0,0-3.54,3.54,7.86,7.86,0,0,1,0,11.11,2.5,2.5,0,1,0,3.54,3.54A12.87,12.87,0,0,0,60.75,40.91Z"/><path d="M65,34.64a2.5,2.5,0,0,0,0,3.54,16.75,16.75,0,0,1,0,23.66,2.5,2.5,0,1,0,3.54,3.54,21.75,21.75,0,0,0,0-30.73A2.5,2.5,0,0,0,65,34.64Z"/></svg>
