<svg xmlns:dc="http://purl.org/dc/elements/1.1/" xmlns:cc="http://creativecommons.org/ns#" xmlns:rdf="http://www.w3.org/1999/02/22-rdf-syntax-ns#" xmlns:svg="http://www.w3.org/2000/svg" xmlns="http://www.w3.org/2000/svg" xmlns:sodipodi="http://sodipodi.sourceforge.net/DTD/sodipodi-0.dtd" xmlns:inkscape="http://www.inkscape.org/namespaces/inkscape" version="1.1" x="0px" y="0px" viewBox="0 0 64 80" style="enable-background:new 0 0 64 64;" xml:space="preserve"><style type="text/css">
	.st0{fill:#FFFFFF;}
	.st1{fill:#457ABE;}
	.st2{fill:none;stroke:#000000;stroke-linecap:round;stroke-linejoin:round;stroke-miterlimit:10;}
	.st3{fill:none;stroke:#010101;stroke-linecap:round;stroke-linejoin:round;}
	.st4{fill:none;stroke:#457ABE;stroke-linecap:round;stroke-linejoin:round;stroke-miterlimit:10;}
	.st5{fill:#6598D0;}
	.st6{fill:#D0E5F6;}
	.st7{fill:#A8CCEC;}
	.st8{fill:none;stroke:#000000;stroke-miterlimit:10;}
	.st9{fill:none;stroke:#000000;stroke-linecap:round;stroke-linejoin:round;stroke-dasharray:0.5074,2.0294;}
	.st10{fill:none;stroke:#000000;stroke-linecap:round;stroke-linejoin:round;}
	.st11{fill:none;stroke:#000000;stroke-linecap:round;stroke-linejoin:round;stroke-dasharray:1.0247,2.0495;}
	.st12{fill:none;stroke:#000000;stroke-linecap:round;stroke-linejoin:round;stroke-dasharray:1.0232,2.0464;}
	.st13{fill:#FFFFFF;stroke:#000000;stroke-linecap:round;stroke-linejoin:round;stroke-miterlimit:10;}
	.st14{stroke:#000000;stroke-linecap:round;stroke-linejoin:round;stroke-miterlimit:10;}
	.st15{fill:none;stroke:#010101;stroke-linecap:round;stroke-linejoin:round;stroke-miterlimit:10;}
	.st16{fill:none;stroke:#000000;stroke-linecap:round;stroke-linejoin:round;stroke-miterlimit:10;stroke-dasharray:1,2;}
	.st17{fill:none;stroke:#000000;stroke-linecap:round;stroke-linejoin:round;stroke-dasharray:1,2;}
	
		.st18{fill-rule:evenodd;clip-rule:evenodd;fill:none;stroke:#000000;stroke-linecap:round;stroke-linejoin:round;stroke-miterlimit:10;}
</style><path d="M 34.511719 15.494141 C 34.235719 15.494141 34.011719 15.718141 34.011719 15.994141 L 34.011719 27.484375 L 30.990234 27.484375 L 30.990234 20.988281 C 30.990234 19.058281 29.420234 17.488281 27.490234 17.488281 L 7.4902344 17.488281 C 5.5602344 17.488281 3.9902344 19.058281 3.9902344 20.988281 L 3.9902344 24.994141 C 3.9892344 25.270141 4.2122812 25.494141 4.4882812 25.494141 L 9.9882812 25.494141 L 9.9882812 44.994141 C 9.9882812 45.270141 10.212281 45.494141 10.488281 45.494141 L 13.990234 45.494141 C 13.995234 47.144141 15.337281 48.484375 16.988281 48.484375 L 16.988281 48.505859 L 41.988281 48.505859 C 42.021281 48.505859 42.052938 48.495141 42.085938 48.494141 L 57.511719 48.494141 C 57.787719 48.494141 58.011719 48.270141 58.011719 47.994141 L 58.011719 31.488281 L 59.511719 31.488281 C 59.787719 31.488281 60.011719 31.264281 60.011719 30.988281 L 60.011719 27.988281 C 60.011719 27.712281 59.787719 27.488281 59.511719 27.488281 L 58.011719 27.488281 L 58.011719 26.488281 L 59.511719 26.488281 C 59.787719 26.488281 60.011719 26.264281 60.011719 25.988281 L 60.011719 22.988281 C 60.011719 22.712281 59.787719 22.488281 59.511719 22.488281 L 58.011719 22.488281 L 58.011719 21.488281 L 59.511719 21.488281 C 59.787719 21.488281 60.011719 21.264281 60.011719 20.988281 L 60.011719 17.988281 C 60.011719 17.712281 59.787719 17.488281 59.511719 17.488281 L 58.011719 17.488281 L 58.011719 15.994141 C 58.011719 15.718141 57.787719 15.494141 57.511719 15.494141 L 34.511719 15.494141 z M 35.009766 16.494141 L 35.011719 16.494141 L 53.011719 16.494141 L 53.011719 35.726562 L 50.234375 37.578125 C 50.095375 37.671125 50.011719 37.827141 50.011719 37.994141 L 50.011719 47.494141 L 44.216797 47.494141 C 44.691797 46.963141 44.988281 46.271859 44.988281 45.505859 L 44.988281 38.984375 L 44.988281 35.505859 L 44.988281 30.484375 C 44.988281 28.830375 43.642281 27.484375 41.988281 27.484375 L 35.009766 27.484375 L 35.009766 16.494141 z M 54.011719 16.494141 L 57.011719 16.494141 L 57.011719 17.988281 L 57.011719 20.988281 L 57.011719 22.988281 L 57.011719 25.988281 L 57.011719 27.988281 L 57.011719 30.988281 L 57.011719 47.494141 L 51.011719 47.494141 L 51.011719 38.263672 L 53.787109 36.410156 C 53.926109 36.317156 54.011719 36.161141 54.011719 35.994141 L 54.011719 16.494141 z M 7.4882812 18.488281 C 8.8672812 18.488281 9.9882812 19.610281 9.9882812 20.988281 L 9.9882812 23.988281 L 9.9882812 24.494141 L 4.9882812 24.494141 L 4.9882812 20.988281 C 4.9882812 19.610281 6.1092813 18.488281 7.4882812 18.488281 z M 9.9296875 18.488281 L 27.488281 18.488281 C 28.867281 18.488281 29.988281 19.610281 29.988281 20.988281 L 29.988281 32.505859 L 21.988281 32.505859 C 21.887281 32.505859 21.792359 32.525156 21.693359 32.535156 C 21.630359 32.507156 21.561281 32.488281 21.488281 32.488281 L 13.488281 32.488281 C 13.212281 32.488281 12.988281 32.712281 12.988281 32.988281 C 12.988281 33.264281 13.212281 33.488281 13.488281 33.488281 L 19.78125 33.488281 C 19.29725 34.018281 18.995234 34.716281 18.990234 35.488281 L 13.488281 35.488281 C 13.212281 35.488281 12.988281 35.712281 12.988281 35.988281 C 12.988281 36.264281 13.212281 36.488281 13.488281 36.488281 L 18.988281 36.488281 L 18.988281 38.488281 L 13.488281 38.488281 C 13.212281 38.488281 12.988281 38.712281 12.988281 38.988281 C 12.988281 39.264281 13.212281 39.488281 13.488281 39.488281 L 18.988281 39.488281 L 18.988281 41.488281 L 13.488281 41.488281 C 13.212281 41.488281 12.988281 41.712281 12.988281 41.988281 C 12.988281 42.264281 13.212281 42.488281 13.488281 42.488281 L 18.988281 42.488281 L 18.988281 44.494141 L 10.988281 44.494141 L 10.988281 24.994141 L 10.988281 23.988281 L 10.988281 20.988281 C 10.988281 20.008281 10.580687 19.124281 9.9296875 18.488281 z M 58.011719 18.488281 L 59.011719 18.488281 L 59.011719 20.488281 L 58.011719 20.488281 L 58.011719 18.488281 z M 41.511719 19.494141 C 41.235719 19.494141 41.011719 19.718141 41.011719 19.994141 L 41.011719 22.994141 C 41.011719 23.270141 41.235719 23.494141 41.511719 23.494141 L 49.511719 23.494141 C 49.787719 23.494141 50.011719 23.270141 50.011719 22.994141 L 50.011719 19.994141 C 50.011719 19.718141 49.787719 19.494141 49.511719 19.494141 L 41.511719 19.494141 z M 16.488281 20.488281 C 16.212281 20.488281 15.988281 20.712281 15.988281 20.988281 C 15.988281 21.264281 16.212281 21.488281 16.488281 21.488281 L 24.488281 21.488281 C 24.764281 21.488281 24.988281 21.264281 24.988281 20.988281 C 24.988281 20.712281 24.764281 20.488281 24.488281 20.488281 L 16.488281 20.488281 z M 42.011719 20.494141 L 49.011719 20.494141 L 49.011719 22.494141 L 42.011719 22.494141 L 42.011719 20.494141 z M 13.488281 23.488281 C 13.212281 23.488281 12.988281 23.712281 12.988281 23.988281 C 12.988281 24.264281 13.212281 24.488281 13.488281 24.488281 L 27.488281 24.488281 C 27.764281 24.488281 27.988281 24.264281 27.988281 23.988281 C 27.988281 23.712281 27.764281 23.488281 27.488281 23.488281 L 13.488281 23.488281 z M 58.011719 23.488281 L 59.011719 23.488281 L 59.011719 25.488281 L 58.011719 25.488281 L 58.011719 23.488281 z M 13.488281 26.488281 C 13.212281 26.488281 12.988281 26.712281 12.988281 26.988281 C 12.988281 27.264281 13.212281 27.488281 13.488281 27.488281 L 27.488281 27.488281 C 27.764281 27.488281 27.988281 27.264281 27.988281 26.988281 C 27.988281 26.712281 27.764281 26.488281 27.488281 26.488281 L 13.488281 26.488281 z M 30.988281 28.484375 L 41.988281 28.484375 C 43.091281 28.484375 43.988281 29.381375 43.988281 30.484375 L 43.988281 33.285156 C 43.456281 32.805156 42.759281 32.505859 41.988281 32.505859 L 30.988281 32.505859 L 30.988281 28.484375 z M 58.011719 28.488281 L 59.011719 28.488281 L 59.011719 30.488281 L 58.011719 30.488281 L 58.011719 28.488281 z M 13.488281 29.488281 C 13.212281 29.488281 12.988281 29.712281 12.988281 29.988281 C 12.988281 30.264281 13.212281 30.488281 13.488281 30.488281 L 27.488281 30.488281 C 27.764281 30.488281 27.988281 30.264281 27.988281 29.988281 C 27.988281 29.712281 27.764281 29.488281 27.488281 29.488281 L 13.488281 29.488281 z M 21.988281 33.505859 L 41.988281 33.505859 C 43.091281 33.505859 43.988281 34.402859 43.988281 35.505859 L 43.988281 38.984375 L 43.988281 45.505859 C 43.988281 46.575859 43.142937 47.443141 42.085938 47.494141 L 34.511719 47.494141 C 34.494719 47.494141 34.478891 47.503859 34.462891 47.505859 L 19.224609 47.505859 C 19.699609 46.974859 19.988281 46.272859 19.988281 45.505859 L 19.988281 35.505859 C 19.988281 34.402859 20.885281 33.505859 21.988281 33.505859 z M 14.990234 45.494141 L 18.988281 45.494141 L 18.988281 45.505859 C 18.988281 46.608859 18.091281 47.505859 16.988281 47.505859 L 16.988281 47.484375 C 15.889281 47.484375 14.995234 46.592141 14.990234 45.494141 z " style="" fill="#000000" stroke="none"/></svg>
