<svg xmlns="http://www.w3.org/2000/svg" data-name="Layer 1" viewBox="0 0 32 40" x="0px" y="0px"><title>user</title><path d="M27.93,26.79a12.81,12.81,0,0,0-23.86,0,1,1,0,1,0,1.86.73,10.81,10.81,0,0,1,20.14,0,1,1,0,0,0,.93.64.92.92,0,0,0,.36-.07A1,1,0,0,0,27.93,26.79ZM16,16.64a6.4,6.4,0,1,0-6.4-6.4A6.41,6.41,0,0,0,16,16.64Zm0-10.8a4.4,4.4,0,1,1-4.4,4.4A4.41,4.41,0,0,1,16,5.84Z"/><text x="0" y="47" fill="#000000" font-size="5px" font-weight="bold" font-family="'Helvetica Neue', Helvetica, Arial-Unicode, Arial, Sans-serif">Created by Rodolfo Alvarez</text><text x="0" y="52" fill="#000000" font-size="5px" font-weight="bold" font-family="'Helvetica Neue', Helvetica, Arial-Unicode, Arial, Sans-serif">from the Noun Project</text></svg>