<svg xmlns:rdf="http://www.w3.org/1999/02/22-rdf-syntax-ns#" xmlns="http://www.w3.org/2000/svg" xmlns:cc="http://creativecommons.org/ns#" xmlns:dc="http://purl.org/dc/elements/1.1/" version="1.1" x="0px" y="0px" viewBox="0 0 100 125"><g transform="translate(0,-952.36218)"><path fill-rule="nonzero" style="baseline-shift:baseline;block-progression:tb;color:#000000;direction:ltr;text-indent:0;enable-background:accumulate;text-transform:none;" fill="#000" d="m73.969,959.85c-7.661,0-13.906,6.2458-13.906,13.906,0,7.6604,6.2452,13.906,13.906,13.906,7.661,0,13.875-6.2458,13.875-13.906,0-7.6604-6.214-13.906-13.875-13.906zm0,2.0312c6.5801,0,11.906,5.2954,11.906,11.875s-5.3261,11.906-11.906,11.906c-6.5801,0-11.875-5.3266-11.875-11.906,0-6.5796,5.2949-11.875,11.875-11.875zm-55.5,2.5c-1.8233,0-3.3125,1.4892-3.3125,3.3125v16.812c0,1.8233,1.4892,3.3125,3.3125,3.3125h13.594v6h-8.2188c-1.8233,0-3.3125,1.5205-3.3125,3.3438v1.5938c0,0.45582,0.0819,0.91649,0.25,1.3125h-7.6562c-1.8736,0-3.4062,1.5326-3.4062,3.4063v2.4062c0,1.8736,1.5326,3.4375,3.4062,3.4375h0.25v32.312c0,1.7829,1.4671,3.25,3.25,3.25s3.2188-1.484,3.2188-3.25v-32.312h60.406v32.312c0,1.7829,1.4671,3.25,3.25,3.25s3.2188-1.484,3.2188-3.25v-32.312h0.15625c1.8736,0,3.4062-1.5639,3.4062-3.4375v-2.4062c0-1.8737-1.5326-3.4063-3.4062-3.4063h-36.094c0.17103-0.396,0.28125-0.85667,0.28125-1.3125v-1.5938c0-1.8233-1.5205-3.3438-3.3438-3.3438h-8.2188v-6h13.594c1.8233,0,3.3438-1.4892,3.3438-3.3125v-16.812c0-1.8233-1.5205-3.3125-3.3438-3.3125h-34.625zm55.469,1.7812a1.0001,1.0001,0,0,0,-0.875,1.0312v6.25l-3.5938,0.0625a1.0001,1.0001,0,1,0,0.0312,2l4.5625-0.0625a1.0001,1.0001,0,0,0,1,-1v-7.25a1.0001,1.0001,0,0,0,-1.0312,-1.0312,1.0001,1.0001,0,0,0,-0.0937,0zm-55.469,0.21875,34.625,0c0.74986,0,1.3438,0.56263,1.3438,1.3125v16.812c0,0.74985-0.59389,1.3125-1.3438,1.3125h-34.625c-0.74987,0-1.3125-0.56264-1.3125-1.3125v-16.812c0-0.74987,0.56263-1.3125,1.3125-1.3125zm15.594,21.469,3.4375,0,0,5.9688-3.4375,0,0-5.9688zm-10.219,7.9688,8.9375,0a1.0001,1.0001,0,0,0,0.28125,0.0312h5.4375a1.0001,1.0001,0,0,0,0.1875,-0.0312h9.0312c0.74987,0,1.3438,0.59389,1.3438,1.3438v1.5938c0,0.65613-0.44647,1.1946-1.0625,1.3125h-24.438c-0.61004-0.11794-1.0312-0.65637-1.0312-1.3125v-1.5938c0-0.74985,0.56265-1.3438,1.3125-1.3438zm-10.719,6.25,73.75,0c0.8002,0,1.4062,0.6061,1.4062,1.4063v2.4062c0,0.8002-0.60605,1.4375-1.4062,1.4375h-1-4.8125-62.062-4.8125-1.0625c-0.8002,0-1.4062-0.6373-1.4062-1.4375v-2.4062c0-0.8002,0.60605-1.4063,1.4062-1.4063zm2.25,7.25,2.4688,0,0,32.312c0,0.7036-0.53206,1.25-1.2188,1.25-0.68669,0-1.25-0.5633-1.25-1.25v-32.312zm66.875,0,2.4688,0,0,32.312c0,0.7036-0.53207,1.25-1.2188,1.25-0.68669,0-1.25-0.5633-1.25-1.25v-32.312z"/></g></svg>
